<mxfile host="app.diagrams.net" modified="2022-06-21T07:39:40.584Z" agent="5.0 (Windows NT 10.0; Win64; x64) AppleWebKit/537.36 (KHTML, like Gecko) Chrome/102.0.5005.124 Safari/537.36 Edg/102.0.1245.44" etag="YotG-MAFB0XOv_ocdN6v" version="20.0.1" type="github">
  <diagram id="gwrz2Kcx-Vh1NgSLAlL-" name="第 1 页">
    <mxGraphModel dx="1422" dy="754" grid="1" gridSize="10" guides="1" tooltips="1" connect="1" arrows="1" fold="1" page="1" pageScale="1" pageWidth="1100" pageHeight="850" math="0" shadow="0">
      <root>
        <mxCell id="0" />
        <mxCell id="1" parent="0" />
        <mxCell id="3HNB4jQPYBcqC5KZrKwe-3" style="edgeStyle=orthogonalEdgeStyle;rounded=0;orthogonalLoop=1;jettySize=auto;html=1;strokeWidth=2;" edge="1" parent="1" source="3HNB4jQPYBcqC5KZrKwe-1" target="3HNB4jQPYBcqC5KZrKwe-2">
          <mxGeometry relative="1" as="geometry" />
        </mxCell>
        <mxCell id="3HNB4jQPYBcqC5KZrKwe-1" value="编译器" style="rounded=1;whiteSpace=wrap;html=1;strokeWidth=2;" vertex="1" parent="1">
          <mxGeometry x="480" y="130" width="160" height="30" as="geometry" />
        </mxCell>
        <mxCell id="3HNB4jQPYBcqC5KZrKwe-9" style="edgeStyle=orthogonalEdgeStyle;rounded=0;orthogonalLoop=1;jettySize=auto;html=1;strokeWidth=2;" edge="1" parent="1" source="3HNB4jQPYBcqC5KZrKwe-2" target="3HNB4jQPYBcqC5KZrKwe-7">
          <mxGeometry relative="1" as="geometry" />
        </mxCell>
        <mxCell id="3HNB4jQPYBcqC5KZrKwe-2" value="目标程序" style="rounded=1;whiteSpace=wrap;html=1;dashed=1;strokeWidth=2;" vertex="1" parent="1">
          <mxGeometry x="480" y="210" width="160" height="30" as="geometry" />
        </mxCell>
        <mxCell id="3HNB4jQPYBcqC5KZrKwe-5" style="edgeStyle=orthogonalEdgeStyle;rounded=0;orthogonalLoop=1;jettySize=auto;html=1;strokeWidth=2;" edge="1" parent="1" source="3HNB4jQPYBcqC5KZrKwe-4" target="3HNB4jQPYBcqC5KZrKwe-1">
          <mxGeometry relative="1" as="geometry" />
        </mxCell>
        <mxCell id="3HNB4jQPYBcqC5KZrKwe-4" value="源程序" style="text;html=1;strokeColor=none;fillColor=none;align=center;verticalAlign=middle;whiteSpace=wrap;rounded=0;dashed=1;strokeWidth=2;" vertex="1" parent="1">
          <mxGeometry x="530" y="60" width="60" height="30" as="geometry" />
        </mxCell>
        <mxCell id="3HNB4jQPYBcqC5KZrKwe-8" style="edgeStyle=orthogonalEdgeStyle;rounded=0;orthogonalLoop=1;jettySize=auto;html=1;entryX=0;entryY=0.5;entryDx=0;entryDy=0;strokeWidth=2;" edge="1" parent="1" source="3HNB4jQPYBcqC5KZrKwe-6" target="3HNB4jQPYBcqC5KZrKwe-2">
          <mxGeometry relative="1" as="geometry" />
        </mxCell>
        <mxCell id="3HNB4jQPYBcqC5KZrKwe-6" value="输入" style="text;html=1;strokeColor=none;fillColor=none;align=center;verticalAlign=middle;whiteSpace=wrap;rounded=0;dashed=1;" vertex="1" parent="1">
          <mxGeometry x="360" y="210" width="60" height="30" as="geometry" />
        </mxCell>
        <mxCell id="3HNB4jQPYBcqC5KZrKwe-7" value="输出" style="text;html=1;strokeColor=none;fillColor=none;align=center;verticalAlign=middle;whiteSpace=wrap;rounded=0;dashed=1;" vertex="1" parent="1">
          <mxGeometry x="690" y="210" width="60" height="30" as="geometry" />
        </mxCell>
      </root>
    </mxGraphModel>
  </diagram>
</mxfile>
